<svg width="345" height="32" viewBox="0 0 345 32" fill="none" xmlns="http://www.w3.org/2000/svg">
<path d="M28.035 0.919999C27.2883 0.966665 26.74 1.06 26.39 1.2C26.0633 1.34 25.8417 1.60833 25.725 2.005C25.6083 2.40167 25.55 3.04333 25.55 3.93V21.29C25.55 22.1767 25.6083 22.8183 25.725 23.215C25.865 23.6117 26.0983 23.88 26.425 24.02C26.7517 24.16 27.2883 24.2533 28.035 24.3V25C26.775 24.93 24.815 24.895 22.155 24.895C19.4717 24.895 17.4067 24.93 15.96 25V24.3C16.7067 24.2533 17.2433 24.16 17.57 24.02C17.92 23.88 18.1533 23.6117 18.27 23.215C18.3867 22.8183 18.445 22.1767 18.445 21.29V12.89H10.57V21.29C10.57 22.1767 10.6283 22.8183 10.745 23.215C10.885 23.6117 11.1183 23.88 11.445 24.02C11.7717 24.16 12.3083 24.2533 13.055 24.3V25C11.7017 24.93 9.75333 24.895 7.21 24.895C4.38667 24.895 2.31 24.93 0.98 25V24.3C1.72667 24.2533 2.26333 24.16 2.59 24.02C2.94 23.88 3.17333 23.6117 3.29 23.215C3.40667 22.8183 3.465 22.1767 3.465 21.29V3.93C3.465 3.04333 3.395 2.40167 3.255 2.005C3.13833 1.60833 2.91667 1.34 2.59 1.2C2.26333 1.06 1.72667 0.966665 0.98 0.919999V0.22C2.31 0.289999 4.38667 0.324998 7.21 0.324998C9.73 0.324998 11.6783 0.289999 13.055 0.22V0.919999C12.3083 0.966665 11.76 1.06 11.41 1.2C11.0833 1.34 10.8617 1.60833 10.745 2.005C10.6283 2.40167 10.57 3.04333 10.57 3.93V12.19H18.445V3.93C18.445 3.04333 18.375 2.40167 18.235 2.005C18.1183 1.60833 17.8967 1.34 17.57 1.2C17.2433 1.06 16.7067 0.966665 15.96 0.919999V0.22C17.4067 0.289999 19.4717 0.324998 22.155 0.324998C24.815 0.324998 26.775 0.289999 28.035 0.22V0.919999ZM39.415 6.345C42.285 6.345 44.5016 7.10333 46.065 8.62C47.6283 10.1133 48.41 12.5517 48.41 15.935C48.41 19.3183 47.6283 21.7567 46.065 23.25C44.5016 24.7433 42.285 25.49 39.415 25.49C36.545 25.49 34.3283 24.7433 32.765 23.25C31.2016 21.7567 30.42 19.3183 30.42 15.935C30.42 12.5517 31.2016 10.1133 32.765 8.62C34.3283 7.10333 36.545 6.345 39.415 6.345ZM39.415 7.045C38.6683 7.045 38.0733 7.78 37.63 9.25C37.1866 10.72 36.965 12.9483 36.965 15.935C36.965 18.9217 37.1866 21.15 37.63 22.62C38.0733 24.0667 38.6683 24.79 39.415 24.79C40.1616 24.79 40.7566 24.0667 41.2 22.62C41.6433 21.15 41.865 18.9217 41.865 15.935C41.865 12.9483 41.6433 10.72 41.2 9.25C40.7566 7.78 40.1616 7.045 39.415 7.045ZM62.576 15.585C65.3526 15.6317 67.3126 16.04 68.456 16.81C69.6226 17.58 70.206 18.7467 70.206 20.31C70.206 21.85 69.6576 23.0167 68.561 23.81C67.4643 24.6033 65.6443 25 63.101 25C62.751 25 61.9226 24.9767 60.616 24.93C58.936 24.8833 57.5593 24.86 56.486 24.86C55.6926 24.86 53.9426 24.9067 51.236 25V24.265C51.9593 24.265 52.461 24.09 52.741 23.74C53.0443 23.3667 53.196 22.7017 53.196 21.745V10.125C53.196 9.16833 53.0443 8.515 52.741 8.165C52.461 7.79167 51.9593 7.605 51.236 7.605V6.87C53.756 6.96333 55.3893 7.01 56.136 7.01C57.0926 7.01 58.341 6.98667 59.881 6.94C61.141 6.89333 61.9576 6.87 62.331 6.87C67.161 6.87 69.576 8.22333 69.576 10.93C69.576 12.19 68.981 13.24 67.791 14.08C66.6243 14.92 64.886 15.4217 62.576 15.585ZM59.496 15.515C60.966 15.4917 61.946 15.165 62.436 14.535C62.9493 13.8817 63.206 12.8433 63.206 11.42C63.206 10.23 63.031 9.29667 62.681 8.62C62.3543 7.94333 61.7243 7.605 60.791 7.605C60.2776 7.605 59.9276 7.76833 59.741 8.095C59.5776 8.42167 59.496 9.09833 59.496 10.125V15.515ZM60.896 24.265C61.9926 24.265 62.7393 23.9033 63.136 23.18C63.556 22.4567 63.766 21.5117 63.766 20.345C63.766 18.875 63.4626 17.825 62.856 17.195C62.2493 16.5417 61.246 16.215 59.846 16.215H59.496V21.745C59.496 22.7717 59.5893 23.4483 59.776 23.775C59.986 24.1017 60.3593 24.265 60.896 24.265ZM82.2597 6.345C85.1297 6.345 87.3464 7.10333 88.9097 8.62C90.473 10.1133 91.2547 12.5517 91.2547 15.935C91.2547 19.3183 90.473 21.7567 88.9097 23.25C87.3464 24.7433 85.1297 25.49 82.2597 25.49C79.3897 25.49 77.173 24.7433 75.6097 23.25C74.0464 21.7567 73.2647 19.3183 73.2647 15.935C73.2647 12.5517 74.0464 10.1133 75.6097 8.62C77.173 7.10333 79.3897 6.345 82.2597 6.345ZM82.2597 7.045C81.513 7.045 80.918 7.78 80.4747 9.25C80.0314 10.72 79.8097 12.9483 79.8097 15.935C79.8097 18.9217 80.0314 21.15 80.4747 22.62C80.918 24.0667 81.513 24.79 82.2597 24.79C83.0064 24.79 83.6014 24.0667 84.0447 22.62C84.488 21.15 84.7097 18.9217 84.7097 15.935C84.7097 12.9483 84.488 10.72 84.0447 9.25C83.6014 7.78 83.0064 7.045 82.2597 7.045ZM103.391 6.345C104.347 6.345 105.222 6.45 106.016 6.66C106.832 6.84667 107.497 7.09167 108.011 7.395C108.664 7.76833 109.177 8.27 109.551 8.9C109.924 9.53 110.111 10.2417 110.111 11.035C110.111 12.015 109.796 12.8317 109.166 13.485C108.536 14.115 107.731 14.43 106.751 14.43C105.747 14.43 104.954 14.15 104.371 13.59C103.811 13.0067 103.531 12.2367 103.531 11.28C103.531 10.44 103.799 9.705 104.336 9.075C104.896 8.42167 105.584 7.99 106.401 7.78C106.051 7.5 105.584 7.36 105.001 7.36C103.507 7.36 102.457 8.165 101.851 9.775C101.244 11.3617 100.941 13.2517 100.941 15.445C100.941 17.685 101.361 19.2833 102.201 20.24C103.041 21.1967 104.079 21.675 105.316 21.675C107.019 21.675 108.431 20.8933 109.551 19.33L110.146 19.54C109.632 21.1733 108.757 22.5733 107.521 23.74C106.307 24.9067 104.744 25.49 102.831 25.49C100.287 25.49 98.2457 24.7317 96.7057 23.215C95.1657 21.6983 94.3957 19.2717 94.3957 15.935C94.3957 12.7383 95.2124 10.3467 96.8457 8.76C98.5024 7.15 100.684 6.345 103.391 6.345ZM132.248 6.87C132.085 8.92333 132.003 10.7433 132.003 12.33C132.003 13.4033 132.038 14.2433 132.108 14.85H131.303C130.907 13.2167 130.44 11.8633 129.903 10.79C129.367 9.69333 128.807 8.88833 128.223 8.375C127.663 7.86167 127.138 7.605 126.648 7.605H125.633V21.395C125.633 22.4683 125.878 23.215 126.368 23.635C126.882 24.055 127.64 24.265 128.643 24.265V25L127.628 24.965C124.968 24.895 123.265 24.86 122.518 24.86C121.725 24.86 119.998 24.895 117.338 24.965L116.323 25V24.265C117.397 24.265 118.167 24.1133 118.633 23.81C119.1 23.4833 119.333 22.795 119.333 21.745V7.605H118.318C117.828 7.605 117.292 7.86167 116.708 8.375C116.148 8.88833 115.6 9.69333 115.063 10.79C114.527 11.8633 114.06 13.2167 113.663 14.85H112.858C112.928 14.2433 112.963 13.4033 112.963 12.33C112.963 10.7433 112.882 8.92333 112.718 6.87H116.673L118.598 6.905C119.718 6.975 121.002 7.01 122.448 7.01C123.942 7.01 125.248 6.975 126.368 6.905L128.293 6.87H132.248ZM156.893 7.605C156.17 7.605 155.656 7.79167 155.353 8.165C155.073 8.515 154.933 9.16833 154.933 10.125V21.745C154.933 22.7017 155.073 23.3667 155.353 23.74C155.656 24.09 156.17 24.265 156.893 24.265V25C154.373 24.9067 152.74 24.86 151.993 24.86C151.2 24.86 149.543 24.9067 147.023 25V24.265C147.63 24.265 148.05 24.09 148.283 23.74C148.516 23.3667 148.633 22.7017 148.633 21.745V11.21L142.998 22.305C143.045 23.0517 143.185 23.565 143.418 23.845C143.651 24.125 144.048 24.265 144.608 24.265V25C142.275 24.9067 140.735 24.86 139.988 24.86C139.195 24.86 137.445 24.9067 134.738 25V24.265C135.461 24.265 135.963 24.09 136.243 23.74C136.546 23.3667 136.698 22.7017 136.698 21.745V10.125C136.698 9.16833 136.546 8.515 136.243 8.165C135.963 7.79167 135.461 7.605 134.738 7.605V6.87C137.258 6.96333 138.891 7.01 139.638 7.01C140.431 7.01 142.088 6.96333 144.608 6.87V7.605C144.001 7.605 143.581 7.79167 143.348 8.165C143.115 8.515 142.998 9.16833 142.998 10.125V20.765L148.633 9.74C148.61 8.92333 148.47 8.36333 148.213 8.06C147.98 7.75667 147.583 7.605 147.023 7.605V6.87C149.356 6.96333 150.896 7.01 151.643 7.01C152.436 7.01 154.186 6.96333 156.893 6.87V7.605ZM187.819 22.34C188.099 23.0167 188.344 23.495 188.554 23.775C188.787 24.0317 189.137 24.195 189.604 24.265V25C188.671 25.14 187.761 25.21 186.874 25.21C185.241 25.21 183.946 24.9183 182.989 24.335C182.056 23.7517 181.426 22.76 181.099 21.36C180.936 20.6367 180.702 19.855 180.399 19.015C180.119 18.1517 179.757 17.475 179.314 16.985C178.754 16.3317 177.949 16.005 176.899 16.005L176.409 16.04V21.745C176.409 22.7017 176.549 23.3667 176.829 23.74C177.132 24.09 177.646 24.265 178.369 24.265V25C175.662 24.9067 173.924 24.86 173.154 24.86C172.337 24.86 170.669 24.9067 168.149 25V24.265C168.872 24.265 169.374 24.09 169.654 23.74C169.957 23.3667 170.109 22.7017 170.109 21.745V10.125C170.109 9.16833 169.957 8.515 169.654 8.165C169.374 7.79167 168.872 7.605 168.149 7.605V6.87C170.856 6.96333 172.617 7.01 173.434 7.01C174.204 7.01 175.849 6.96333 178.369 6.87V7.605C177.646 7.605 177.132 7.79167 176.829 8.165C176.549 8.515 176.409 9.16833 176.409 10.125V15.41C177.319 15.34 178.007 15.165 178.474 14.885C178.964 14.605 179.337 14.1967 179.594 13.66C179.851 13.1233 180.107 12.33 180.364 11.28C180.691 9.99667 180.982 9.02833 181.239 8.375C181.519 7.72167 181.927 7.22 182.464 6.87C183.001 6.52 183.759 6.345 184.739 6.345C186.069 6.345 187.061 6.64833 187.714 7.255C188.391 7.86167 188.729 8.67833 188.729 9.705C188.729 10.7083 188.437 11.5017 187.854 12.085C187.271 12.645 186.524 12.925 185.614 12.925C184.774 12.925 183.992 12.6917 183.269 12.225C182.569 11.7583 182.219 11.0583 182.219 10.125C182.219 9.54167 182.382 8.98167 182.709 8.445C183.036 7.90833 183.549 7.45333 184.249 7.08C183.549 7.12667 183.012 7.29 182.639 7.57C182.266 7.85 181.986 8.235 181.799 8.725C181.612 9.215 181.391 9.97333 181.134 11L180.924 11.875C180.691 12.8317 180.434 13.5667 180.154 14.08C179.897 14.57 179.489 14.955 178.929 15.235C179.489 15.165 180.026 15.13 180.539 15.13C182.826 15.13 184.506 15.7483 185.579 16.985C185.906 17.3583 186.162 17.7783 186.349 18.245C186.559 18.7117 186.792 19.3417 187.049 20.135C187.306 20.9517 187.562 21.6867 187.819 22.34ZM206.379 6.975C207.709 6.975 208.608 6.92833 209.074 6.835V7.57C208.584 7.73333 208.129 8.07167 207.709 8.585C207.313 9.09833 206.939 9.89167 206.589 10.965L202.214 23.985L200.744 28.22C200.324 29.4333 199.811 30.2733 199.204 30.74C198.481 31.3 197.396 31.58 195.949 31.58C194.783 31.58 193.698 31.3 192.694 30.74C191.691 30.2033 191.189 29.3867 191.189 28.29C191.189 27.4733 191.504 26.82 192.134 26.33C192.764 25.84 193.593 25.595 194.619 25.595C195.599 25.595 196.369 25.8167 196.929 26.26C197.489 26.7033 197.769 27.345 197.769 28.185C197.769 28.745 197.571 29.27 197.174 29.76C196.801 30.2733 196.241 30.6467 195.494 30.88C195.728 30.9267 196.124 30.95 196.684 30.95C198.294 30.95 199.403 30.0167 200.009 28.15L200.184 27.555L192.029 9.53C191.679 8.73667 191.329 8.21167 190.979 7.955C190.653 7.69833 190.326 7.57 189.999 7.57V6.835C191.866 6.975 193.768 7.045 195.704 7.045C197.221 7.045 198.913 6.975 200.779 6.835V7.57C200.103 7.57 199.578 7.61667 199.204 7.71C198.854 7.80333 198.679 8.01333 198.679 8.34C198.679 8.52667 198.726 8.71333 198.819 8.9L203.124 19.155L204.594 14.675C205.038 13.3217 205.259 12.1317 205.259 11.105C205.259 10.0083 205.026 9.15667 204.559 8.55C204.093 7.94333 203.474 7.61667 202.704 7.57V6.835C203.568 6.92833 204.793 6.975 206.379 6.975ZM227.679 7.605C227.072 7.605 226.652 7.78 226.419 8.13C226.186 8.48 226.069 9.145 226.069 10.125V21.745C226.069 22.7017 226.186 23.3667 226.419 23.74C226.652 24.09 227.072 24.265 227.679 24.265V25C225.346 24.9067 223.794 24.86 223.024 24.86C222.254 24.86 220.516 24.9067 217.809 25V24.265C218.532 24.265 219.034 24.09 219.314 23.74C219.617 23.3667 219.769 22.7017 219.769 21.745V10.125C219.769 9.16833 219.652 8.515 219.419 8.165C219.186 7.79167 218.766 7.605 218.159 7.605H217.844C217.401 7.605 217.086 7.68667 216.899 7.85C216.712 7.99 216.584 8.2 216.514 8.48C216.467 8.76 216.409 9.30833 216.339 10.125C216.082 12.9717 215.814 15.2933 215.534 17.09C215.277 18.8633 214.881 20.45 214.344 21.85C213.854 23.0867 213.271 24.0083 212.594 24.615C211.917 25.1983 211.124 25.49 210.214 25.49C209.211 25.49 208.301 25.1633 207.484 24.51C206.667 23.8567 206.259 22.8883 206.259 21.605C206.259 20.5317 206.562 19.68 207.169 19.05C207.799 18.42 208.616 18.105 209.619 18.105C210.599 18.105 211.346 18.4083 211.859 19.015C212.396 19.5983 212.664 20.3217 212.664 21.185C212.664 22.7717 211.731 23.9617 209.864 24.755C210.004 24.8017 210.179 24.825 210.389 24.825C211.719 24.825 212.804 23.775 213.644 21.675C214.181 20.3217 214.589 18.6767 214.869 16.74C215.172 14.78 215.417 12.575 215.604 10.125C215.674 9.19167 215.476 8.53833 215.009 8.165C214.566 7.79167 213.842 7.605 212.839 7.605V6.87C213.352 6.91667 214.052 6.94 214.939 6.94C215.546 6.94 216.001 6.92833 216.304 6.905L218.369 6.87C219.302 6.87 220.306 6.89333 221.379 6.94C222.266 6.98667 222.919 7.01 223.339 7.01C223.899 7.01 225.346 6.96333 227.679 6.87V7.605ZM240.953 14.465C243.8 14.465 245.947 14.9317 247.393 15.865C248.84 16.775 249.563 17.965 249.563 19.435C249.563 20.3917 249.248 21.29 248.618 22.13C247.988 22.97 246.985 23.6583 245.608 24.195C244.232 24.7317 242.47 25 240.323 25C239.903 25 239.203 24.9767 238.223 24.93C237.103 24.8833 236.17 24.86 235.423 24.86C234.723 24.86 233.113 24.9067 230.593 25V24.265C231.2 24.265 231.62 24.09 231.853 23.74C232.087 23.3667 232.203 22.7017 232.203 21.745V10.125C232.203 9.16833 232.087 8.515 231.853 8.165C231.62 7.79167 231.2 7.605 230.593 7.605V6.87C232.927 6.96333 234.478 7.01 235.248 7.01C236.018 7.01 237.757 6.96333 240.463 6.87V7.605C239.74 7.605 239.227 7.79167 238.923 8.165C238.643 8.515 238.503 9.16833 238.503 10.125V14.5L240.953 14.465ZM239.833 24.265C242.027 24.265 243.123 22.7833 243.123 19.82C243.123 18.1633 242.773 16.985 242.073 16.285C241.397 15.585 240.242 15.235 238.608 15.235H238.503V22.97C238.503 23.53 238.585 23.8917 238.748 24.055C238.912 24.195 239.273 24.265 239.833 24.265ZM270.464 6.87C270.301 8.92333 270.219 10.7433 270.219 12.33C270.219 13.4033 270.254 14.2433 270.324 14.85H269.519C269.122 13.2167 268.656 11.8633 268.119 10.79C267.582 9.69333 267.022 8.88833 266.439 8.375C265.879 7.86167 265.354 7.605 264.864 7.605H263.849V21.395C263.849 22.4683 264.094 23.215 264.584 23.635C265.097 24.055 265.856 24.265 266.859 24.265V25L265.844 24.965C263.184 24.895 261.481 24.86 260.734 24.86C259.941 24.86 258.214 24.895 255.554 24.965L254.539 25V24.265C255.612 24.265 256.382 24.1133 256.849 23.81C257.316 23.4833 257.549 22.795 257.549 21.745V7.605H256.534C256.044 7.605 255.507 7.86167 254.924 8.375C254.364 8.88833 253.816 9.69333 253.279 10.79C252.742 11.8633 252.276 13.2167 251.879 14.85H251.074C251.144 14.2433 251.179 13.4033 251.179 12.33C251.179 10.7433 251.097 8.92333 250.934 6.87H254.889L256.814 6.905C257.934 6.975 259.217 7.01 260.664 7.01C262.157 7.01 263.464 6.975 264.584 6.905L266.509 6.87H270.464ZM288.206 6.975C289.536 6.975 290.435 6.92833 290.901 6.835V7.57C290.411 7.73333 289.956 8.07167 289.536 8.585C289.14 9.09833 288.766 9.89167 288.416 10.965L284.041 23.985L282.571 28.22C282.151 29.4333 281.638 30.2733 281.031 30.74C280.308 31.3 279.223 31.58 277.776 31.58C276.61 31.58 275.525 31.3 274.521 30.74C273.518 30.2033 273.016 29.3867 273.016 28.29C273.016 27.4733 273.331 26.82 273.961 26.33C274.591 25.84 275.42 25.595 276.446 25.595C277.426 25.595 278.196 25.8167 278.756 26.26C279.316 26.7033 279.596 27.345 279.596 28.185C279.596 28.745 279.398 29.27 279.001 29.76C278.628 30.2733 278.068 30.6467 277.321 30.88C277.555 30.9267 277.951 30.95 278.511 30.95C280.121 30.95 281.23 30.0167 281.836 28.15L282.011 27.555L273.856 9.53C273.506 8.73667 273.156 8.21167 272.806 7.955C272.48 7.69833 272.153 7.57 271.826 7.57V6.835C273.693 6.975 275.595 7.045 277.531 7.045C279.048 7.045 280.74 6.975 282.606 6.835V7.57C281.93 7.57 281.405 7.61667 281.031 7.71C280.681 7.80333 280.506 8.01333 280.506 8.34C280.506 8.52667 280.553 8.71333 280.646 8.9L284.951 19.155L286.421 14.675C286.865 13.3217 287.086 12.1317 287.086 11.105C287.086 10.0083 286.853 9.15667 286.386 8.55C285.92 7.94333 285.301 7.61667 284.531 7.57V6.835C285.395 6.92833 286.62 6.975 288.206 6.975ZM306.262 6.345C308.082 6.345 309.552 7.09167 310.672 8.585C311.792 10.0783 312.352 12.26 312.352 15.13C312.352 18.84 311.605 21.5 310.112 23.11C308.618 24.6967 306.647 25.49 304.197 25.49C302.843 25.49 301.758 25.2683 300.942 24.825V27.73C300.942 28.8033 301.187 29.55 301.677 29.97C302.19 30.39 302.948 30.6 303.952 30.6V31.335L302.937 31.3C300.137 31.23 298.328 31.195 297.512 31.195C296.812 31.195 295.202 31.2417 292.682 31.335V30.6C293.405 30.6 293.907 30.4133 294.187 30.04C294.49 29.69 294.642 29.0367 294.642 28.08V10.685C294.642 9.61167 294.49 8.83 294.187 8.34C293.907 7.85 293.405 7.605 292.682 7.605V6.87C293.405 6.94 294.128 6.975 294.852 6.975C297.278 6.975 299.308 6.81167 300.942 6.485V8.97C302.015 7.22 303.788 6.345 306.262 6.345ZM302.167 24.44C303.45 24.44 304.372 23.7517 304.932 22.375C305.515 20.975 305.807 18.8283 305.807 15.935C305.807 13.065 305.597 11.0583 305.177 9.915C304.757 8.74833 304.185 8.165 303.462 8.165C302.785 8.165 302.19 8.41 301.677 8.9C301.187 9.36667 300.942 9.96167 300.942 10.685V24.16C301.245 24.3467 301.653 24.44 302.167 24.44ZM325.822 14.465C328.669 14.465 330.816 14.9317 332.262 15.865C333.709 16.775 334.432 17.965 334.432 19.435C334.432 20.3917 334.117 21.29 333.487 22.13C332.857 22.97 331.854 23.6583 330.477 24.195C329.101 24.7317 327.339 25 325.192 25C324.772 25 324.072 24.9767 323.092 24.93C321.972 24.8833 321.039 24.86 320.292 24.86C319.592 24.86 317.982 24.9067 315.462 25V24.265C316.069 24.265 316.489 24.09 316.722 23.74C316.956 23.3667 317.072 22.7017 317.072 21.745V10.125C317.072 9.16833 316.956 8.515 316.722 8.165C316.489 7.79167 316.069 7.605 315.462 7.605V6.87C317.796 6.96333 319.347 7.01 320.117 7.01C320.887 7.01 322.626 6.96333 325.332 6.87V7.605C324.609 7.605 324.096 7.79167 323.792 8.165C323.512 8.515 323.372 9.16833 323.372 10.125V14.5L325.822 14.465ZM344.547 7.605C343.824 7.605 343.311 7.79167 343.007 8.165C342.727 8.515 342.587 9.16833 342.587 10.125V21.745C342.587 22.7017 342.727 23.3667 343.007 23.74C343.311 24.09 343.824 24.265 344.547 24.265V25C341.841 24.9067 340.091 24.86 339.297 24.86C338.504 24.86 336.847 24.9067 334.327 25V24.265C335.051 24.265 335.552 24.09 335.832 23.74C336.136 23.3667 336.287 22.7017 336.287 21.745V10.125C336.287 9.16833 336.136 8.515 335.832 8.165C335.552 7.79167 335.051 7.605 334.327 7.605V6.87C337.034 6.96333 338.807 7.01 339.647 7.01C340.394 7.01 342.027 6.96333 344.547 6.87V7.605ZM324.702 24.265C326.896 24.265 327.992 22.7833 327.992 19.82C327.992 18.1633 327.642 16.985 326.942 16.285C326.266 15.585 325.111 15.235 323.477 15.235H323.372V22.97C323.372 23.53 323.454 23.8917 323.617 24.055C323.781 24.195 324.142 24.265 324.702 24.265Z" fill="black"/>
</svg>
